<?xml version="1.0" standalone="no"?><!DOCTYPE svg PUBLIC "-//W3C//DTD SVG 1.1//EN" "http://www.w3.org/Graphics/SVG/1.1/DTD/svg11.dtd"><svg t="1595308862822" class="icon" viewBox="0 0 1024 1024" version="1.1" xmlns="http://www.w3.org/2000/svg" p-id="11751" xmlns:xlink="http://www.w3.org/1999/xlink" width="200" height="200"><defs><style type="text/css"></style></defs><path d="M512 512m-512 0a512 512 0 1 0 1024 0 512 512 0 1 0-1024 0Z" fill="#D7DADA" p-id="11752"></path><path d="M881.032 445.12l-14.528 14.52L509.776 202.64 154.96 511.424l157.272 159.184-28.768 90.152-5.472 8.048 257.096 254.608c248.584-11.032 450.968-199.312 484.048-441.536L881.032 445.12z" fill="#BCC5C2" p-id="11753"></path><path d="M512 233.44L268.552 446.808v296.624c0 22.576 18.472 41.048 41.04 41.048h404.8c22.568 0 41.048-18.472 41.048-41.048V446.808L512 233.44z" fill="#EC9344" p-id="11754"></path><path d="M681.904 382.352a388.976 388.976 0 0 1 16.888 113.128c0 112.816-48.904 215.864-126.264 289H714.4c22.568 0 41.048-18.472 41.048-41.048V446.808l-73.544-64.456z" fill="#DF8039" p-id="11755"></path><path d="M401.944 473.568h100.832V574.4H401.944zM521.224 473.568h100.832V574.4H521.224zM401.944 590.344h100.832v100.832H401.944zM521.224 590.344h100.832v100.832H521.224z" fill="#EDF2F2" p-id="11756"></path><path d="M152.344 509.984c6.56 4.064 13.976 6.32 21.496 6.32a40.888 40.888 0 0 0 27.04-10.176L512 233.44l311.128 272.688a40.96 40.96 0 0 0 43.76 6.512L509.776 202.64 152.344 509.984z" fill="#D1DBDB" p-id="11757"></path><path d="M877.232 444.392l-338.184-296.4a41.072 41.072 0 0 0-54.112 0l-338.168 296.4a41.04 41.04 0 0 0-3.808 57.92c2.76 3.152 5.992 5.576 9.384 7.672L509.776 202.64l357.112 310a40.792 40.792 0 0 0 14.168-10.328 41.064 41.064 0 0 0-3.824-57.92z" fill="#EDF2F2" p-id="11758"></path></svg>