<?xml version="1.0" standalone="no"?><!DOCTYPE svg PUBLIC "-//W3C//DTD SVG 1.1//EN" "http://www.w3.org/Graphics/SVG/1.1/DTD/svg11.dtd"><svg t="1595308906237" class="icon" viewBox="0 0 1024 1024" version="1.1" xmlns="http://www.w3.org/2000/svg" p-id="2480" xmlns:xlink="http://www.w3.org/1999/xlink" width="200" height="200"><defs><style type="text/css"></style></defs><path d="M512 512m-512 0a512 512 0 1 0 1024 0 512 512 0 1 0-1024 0Z" fill="#334E5C" p-id="2481"></path><path d="M776.464 280.56l-36.728 32.648-577.4 411.264-21.592 15.584 278 275.312A513.92 513.92 0 0 0 512 1024c278.28 0 504.544-222.072 511.664-498.624l-247.2-244.816z" fill="#29414C" p-id="2482"></path><path d="M543.656 670.448L308.92 547.104V282.104l234.736 96.896z" fill="#E1574C" p-id="2483"></path><path d="M543.656 670.448l234.752-96.92V282.104L543.656 379zM543.656 450.192L308.92 353.296v-71.192l234.736 96.896z" fill="#CB4D44" p-id="2484"></path><path d="M543.656 450.192l234.752-96.896v-71.192L543.656 379z" fill="#BB3932" p-id="2485"></path><path d="M543.656 185.72L308.92 282.312l234.736 96.576 234.752-96.576z" fill="#E08F78" p-id="2486"></path><path d="M751.792 718.896l-130.136-68.368V503.624l130.136 53.712z" fill="#EECE7B" p-id="2487"></path><path d="M751.792 718.896l130.128-53.72V503.624l-130.128 53.712z" fill="#D8B35F" p-id="2488"></path><path d="M751.792 596.824l-130.136-53.736v-39.464l130.136 53.712z" fill="#DCB661" p-id="2489"></path><path d="M751.792 596.824l130.128-53.736v-39.464l-130.128 53.712z" fill="#C59C49" p-id="2490"></path><path d="M751.792 450.192l-130.136 53.544 130.136 53.536 130.128-53.536z" fill="#EECE7B" p-id="2491"></path><path d="M376.832 838.272L142.08 741.368V529.224l234.752 96.912z" fill="#E8C0A6" p-id="2492"></path><path d="M376.832 838.272l234.744-96.904V529.224L376.832 626.136z" fill="#D3A288" p-id="2493"></path><path d="M376.832 432.848L142.08 529.44l234.752 96.568L611.576 529.44z" fill="#F2DCCD" p-id="2494"></path><path d="M441.8 561.896L316.064 510V396.368l125.736 51.904z" fill="#91D7EE" p-id="2495"></path><path d="M441.8 561.896L567.52 510V396.368l-125.72 51.904z" fill="#4ABDE5" p-id="2496"></path><path d="M441.8 482.608l-125.736-51.904v-34.336l125.736 51.904z" fill="#4ABDE5" p-id="2497"></path><path d="M441.8 482.608l125.72-51.904v-34.336l-125.72 51.904z" fill="#41ADD1" p-id="2498"></path><path d="M441.8 344.752L316.064 396.48l125.736 51.728L567.52 396.48z" fill="#91D7EE" p-id="2499"></path></svg>